<?xml version="1.0" encoding="UTF-8" standalone="no"?>
<!DOCTYPE svg PUBLIC "-//W3C//DTD SVG 1.1//EN" "http://www.w3.org/Graphics/SVG/1.1/DTD/svg11.dtd">
<svg width="100%" height="100%" viewBox="0 0 96 96" version="1.1" xmlns="http://www.w3.org/2000/svg" xmlns:xlink="http://www.w3.org/1999/xlink" xml:space="preserve" xmlns:serif="http://www.serif.com/" style="fill-rule:evenodd;clip-rule:evenodd;stroke-linejoin:round;stroke-miterlimit:2;">
    <g transform="matrix(1,0,0,1,0.414561,-0.334497)">
        <g transform="matrix(0.770361,0,0,0.770361,4.10333,1.33799)">
            <path d="M55.713,0C76.561,13.215 95.395,19.467 111.559,17.989C114.382,75.087 93.296,108.807 55.929,122.88C19.844,109.708 -1.5,77.439 0.083,17.123C19.058,18.116 37.674,14.014 55.713,0Z" style="fill:rgb(26,34,4);"/>
        </g>
        <g transform="matrix(0.770361,0,0,0.770361,4.93246,0.668994)">
            <path d="M55.713,0C76.561,13.215 95.395,19.467 111.559,17.989C114.382,75.087 93.296,108.807 55.929,122.88C19.844,109.708 -1.5,77.439 0.083,17.123C19.058,18.116 37.674,14.014 55.713,0Z" style="fill:rgb(34,46,0);"/>
        </g>
        <g transform="matrix(0.410586,-0.075558,0.075558,0.410586,18.6751,27.3142)">
            <path d="M99.78,52.08C104.94,59.78 111.47,62.14 119.95,56.93C120.23,59.83 120.3,62.79 120.15,65.79C118.48,98.95 90.25,124.48 57.09,122.81C23.94,121.13 -1.59,92.9 0.08,59.75C1.74,26.59 30.95,0.78 64.1,2.45C61.16,11.65 63.65,19.82 71.13,22.6C64.35,44.38 79.49,58.63 99.78,52.08ZM93.87,23.1C96.95,23.1 99.45,25.6 99.45,28.68C99.45,31.76 96.95,34.26 93.87,34.26C90.79,34.26 88.29,31.76 88.29,28.68C88.29,25.6 90.79,23.1 93.87,23.1ZM98.18,-0C101.48,-0 104.16,2.68 104.16,5.98C104.16,9.28 101.48,11.96 98.18,11.96C94.88,11.96 92.2,9.28 92.2,5.98C92.21,2.68 94.88,-0 98.18,-0Z" style="fill:rgb(190,255,0);"/>
        </g>
        <g transform="matrix(0.509975,-0.0938481,0.0938481,0.509975,14.5552,26.3423)">
            <circle cx="36.527" cy="40.485" r="8.474" style="fill:rgb(132,178,0);"/>
        </g>
        <g transform="matrix(0.565161,-0.104004,0.104004,0.565161,20.7963,41.8721)">
            <circle cx="36.527" cy="40.485" r="8.474" style="fill:rgb(132,178,0);"/>
        </g>
        <g transform="matrix(0.308669,-0.0568028,0.0568028,0.308669,46.3567,42.2018)">
            <circle cx="36.527" cy="40.485" r="8.474" style="fill:rgb(132,178,0);"/>
        </g>
        <g transform="matrix(0.770361,0,0,0.770361,4.93246,0.668994)">
            <path d="M55.713,0C76.561,13.215 95.395,19.467 111.559,17.989C114.382,75.087 93.296,108.807 55.929,122.88C50.655,85.559 48.5,31.224 55.713,0Z" style="fill:rgb(236,248,204);fill-opacity:0.18;"/>
        </g>
    </g>
</svg>
